<svg xmlns="http://www.w3.org/2000/svg" xmlns:xlink="http://www.w3.org/1999/xlink" version="1.1" id="Capa_1" x="0px" y="0px" viewBox="0 0 1125.628 1125.628" style="enable-background:new 0 0 1125.628 1125.628;" xml:space="preserve">
<g>
	<circle cx="598.808" cy="392.817" r="46.12"/>
	<circle cx="390.723" cy="600.902" r="46.12"/>
	<circle cx="556.205" cy="558.299" r="46.12"/>
	<path d="M562.812,0.002C252.476,0.002,0,252.478,0,562.814s252.476,562.812,562.812,562.812   c310.34,0,562.816-252.476,562.816-562.812S873.152,0.002,562.812,0.002z M268.254,627.131c-0.363-0.307-0.723-0.619-1.065-0.962   l-32.264-32.264c-6.746-6.746-6.746-17.785,0-24.532l332.355-332.354c6.746-6.747,17.785-6.747,24.532,0l32.264,32.264   c0.342,0.343,0.655,0.702,0.962,1.066c94.497,98.835,93.159,255.567-4.029,352.754C523.821,720.29,367.09,721.628,268.254,627.131z    M580.688,847.082c-12.742,12.742-33.401,12.742-46.143,0c-12.742-12.742-12.742-33.401,0-46.143   c12.742-12.742,33.401-12.742,46.143,0C593.43,813.681,593.43,834.34,580.688,847.082z M622.645,758.982   c-12.742-12.742-12.742-33.401,0-46.143c12.742-12.742,33.401-12.742,46.143,0c12.742,12.742,12.742,33.401,0,46.143   C656.046,771.724,635.387,771.724,622.645,758.982z M710.005,884.113c-12.742,12.742-33.401,12.742-46.143,0   c-12.742-12.742-12.742-33.401,0-46.143c12.742-12.742,33.401-12.742,46.143,0C722.747,850.712,722.747,871.371,710.005,884.113z    M710.745,670.882c-12.742-12.742-12.742-33.401,0-46.143c12.742-12.742,33.401-12.742,46.143,0   c12.742,12.742,12.742,33.401,0,46.143C744.146,683.624,723.487,683.624,710.745,670.882z M798.105,796.013   c-12.742,12.742-33.401,12.742-46.143,0s-12.742-33.401,0-46.143c12.742-12.742,33.401-12.742,46.143,0   C810.847,762.612,810.847,783.271,798.105,796.013z M798.845,582.782c-12.742-12.742-12.742-33.401,0-46.143   c12.742-12.742,33.401-12.742,46.143,0c12.742,12.742,12.742,33.401,0,46.143C832.246,595.524,811.587,595.524,798.845,582.782z    M886.205,707.913c-12.742,12.742-33.401,12.742-46.143,0s-12.742-33.401,0-46.143c12.742-12.742,33.401-12.742,46.143,0   C898.947,674.511,898.947,695.171,886.205,707.913z"/>
</g>
<g>
</g>
<g>
</g>
<g>
</g>
<g>
</g>
<g>
</g>
<g>
</g>
<g>
</g>
<g>
</g>
<g>
</g>
<g>
</g>
<g>
</g>
<g>
</g>
<g>
</g>
<g>
</g>
<g>
</g>
</svg>